<?xml version="1.0" standalone="no"?>
<!DOCTYPE svg PUBLIC "-//W3C//DTD SVG 20010904//EN"
 "http://www.w3.org/TR/2001/REC-SVG-20010904/DTD/svg10.dtd">
<svg version="1.0" xmlns="http://www.w3.org/2000/svg"
 width="7001.000000pt" height="4001.000000pt" viewBox="0 0 7001.000000 4001.000000"
 preserveAspectRatio="xMidYMid meet">

<g transform="translate(0.000000,4001.000000) scale(0.100000,-0.100000)"
fill="#000000" stroke="none">
<path d="M0 20010 l0 -20000 35000 0 35000 0 0 3675 0 3675 -799 0 -800 0 -36
44 c-32 40 -42 45 -83 49 -26 2 350 4 836 5 l882 2 0 1210 0 1210 -1012 2
-1013 3 3 -1005 c2 -926 0 -1101 -15 -1087 -3 3 -6 142 -6 309 l-1 303 -6
-280 c-3 -154 -7 -260 -9 -235 l-4 45 -7 -45 c-4 -25 -8 -35 -8 -23 -2 23 -22
43 -22 22 0 -7 -2 -10 -5 -7 -3 3 -8 449 -12 993 -5 848 -4 987 8 980 12 -8
12 -6 0 8 -12 16 -82 17 -930 18 -504 1 -927 5 -941 9 l-25 8 25 2 c25 1 25 1
3 10 -13 5 -23 16 -23 24 0 10 -13 16 -37 19 -21 2 106 5 282 8 l320 4 -320 5
c-192 3 67 6 650 8 603 1 975 -2 980 -8 7 -6 9 439 7 1207 -1 669 -4 1218 -5
1220 -2 1 -530 4 -1173 5 l-1170 3 4 -23 c2 -12 -2 -30 -9 -39 -10 -12 -10
-14 -2 -9 10 6 13 -189 13 -958 0 -637 -3 -966 -10 -966 -5 0 -10 8 -10 19 0
25 -26 47 -33 29 -3 -7 -7 142 -9 332 l-3 345 -5 -340 -5 -340 -8 575 c-4 316
-7 754 -7 973 l1 397 -894 3 -894 2 -31 32 c-68 68 -133 63 902 61 873 -3 933
-2 925 14 -5 10 -9 521 -9 1212 l0 1196 -1164 0 c-766 0 -1167 3 -1171 10 -3
6 -12 10 -18 10 -7 0 -6 -4 3 -10 8 -5 11 -10 5 -10 -7 0 -9 -312 -8 -920 1
-505 -1 -945 -6 -977 -6 -41 -10 38 -12 267 l-4 325 -5 -285 c-3 -157 -7 -265
-9 -240 l-4 45 -6 -45 -6 -44 -15 29 c-13 26 -15 155 -18 935 -2 498 -4 911
-4 918 -1 9 -5 9 -12 2 -7 -7 -300 -9 -906 -8 -492 1 -866 4 -830 8 l65 7 -65
3 c-54 3 -58 4 -22 7 38 4 62 23 27 23 -8 0 -15 4 -15 9 0 5 -10 12 -22 14
-17 3 -13 5 12 7 l35 3 -40 7 c-22 4 367 8 865 8 l905 2 3 1210 2 1210 -1147
1 c-632 0 -1162 1 -1180 2 -20 1 -29 -1 -23 -7 14 -14 12 -28 -2 -20 -10 6
-10 4 0 -7 9 -10 12 -205 12 -906 0 -787 -2 -893 -15 -893 -8 0 -15 8 -15 19
0 25 -26 47 -33 29 -3 -7 -7 142 -9 332 l-3 345 -5 -340 -5 -340 -8 585 c-4
322 -7 723 -7 893 l2 307 -794 0 c-437 0 -808 3 -825 6 -19 4 -33 14 -36 25
-3 10 -12 19 -21 19 -10 0 -16 9 -16 25 l0 25 848 0 c571 0 847 3 846 10 -1 5
-2 550 -2 1210 l-2 1200 -1170 -2 -1170 -3 -2 -895 c-1 -492 -3 -876 -5 -852
-4 37 -7 42 -29 42 -20 0 -24 5 -24 28 0 19 -3 23 -9 13 -7 -11 -10 -11 -17 0
-5 8 -11 386 -14 842 l-5 827 -825 2 c-454 1 -789 4 -745 8 44 3 63 7 43 8
-21 1 -38 7 -38 12 0 6 -19 11 -42 11 -24 1 -33 4 -20 6 24 5 29 18 10 26 -7
3 -2 6 12 8 21 1 19 3 -10 9 -19 4 332 8 780 9 550 1 819 -2 826 -9 7 -7 11
-7 11 2 0 7 2 18 3 23 1 6 2 549 1 1208 l-1 1197 -1170 -2 -1170 -3 -1 -835
c0 -479 -4 -826 -9 -815 -5 11 -9 16 -9 10 -1 -5 -8 1 -17 14 -13 18 -18 20
-25 10 -6 -10 -9 -7 -10 11 0 23 -1 23 -9 5 -5 -13 -9 32 -9 120 -1 77 -4 435
-8 795 -4 455 -3 661 4 675 11 20 6 20 -700 17 -392 -2 -731 0 -754 3 -29 4
-43 11 -43 22 0 8 -9 17 -20 20 -13 3 -20 14 -20 29 l0 24 774 -2 c581 -2 772
0 765 8 -5 7 -9 16 -8 20 1 5 1 546 0 1202 l-1 1192 -1169 0 c-1086 0 -1170
-1 -1182 -17 -10 -11 -10 -14 -1 -9 9 6 12 -157 10 -801 -1 -444 -3 -789 -5
-765 -2 23 -8 42 -14 42 -5 0 -9 7 -9 15 0 8 -7 15 -15 15 -8 0 -15 5 -15 10
0 6 -6 10 -14 10 -7 0 -16 10 -20 23 -3 12 -6 349 -6 750 l0 727 -387 1 c-214
1 -496 1 -628 -1 -254 -2 -442 9 -355 21 38 5 32 6 -40 9 -75 3 -79 4 -40 10
25 4 34 8 21 8 -20 2 -21 4 -11 17 11 13 8 15 -21 15 -26 0 -30 3 -19 10 9 6
286 10 744 10 439 0 732 3 735 9 3 5 5 550 3 1210 l-2 1201 -1173 -2 -1172 -3
3 -23 c3 -21 0 -23 -20 -18 l-23 6 23 -11 22 -12 0 -708 c0 -626 -2 -708 -15
-703 -8 4 -15 14 -16 23 -1 9 -4 6 -9 -9 l-8 -25 -1 28 c-1 19 -6 27 -20 27
-29 0 -32 68 -31 777 l1 648 -688 5 c-378 3 -678 6 -665 8 28 3 29 32 2 39
-13 3 -20 14 -20 29 l0 24 694 -2 c509 -2 692 0 685 8 -5 7 -9 492 -9 1210 l0
1199 -1169 3 c-1088 2 -1169 1 -1182 -15 -10 -11 -10 -14 -1 -9 9 6 12 -133
12 -678 0 -423 -4 -686 -9 -686 -6 0 -12 -19 -14 -42 -3 -37 -4 -35 -5 15 -2
42 -6 57 -16 57 -8 0 -18 10 -22 23 -4 12 -10 24 -14 27 -5 3 -11 298 -15 655
-4 358 -8 651 -10 653 -1 1 -253 2 -560 2 -307 0 -587 3 -624 7 l-66 8 45 6
c38 5 31 6 -40 9 -75 3 -79 4 -40 10 25 4 35 8 22 8 -13 1 -20 7 -17 12 4 6
-5 10 -21 10 -15 0 -24 3 -20 8 4 4 304 9 667 12 l659 5 0 1204 c0 663 -2
1206 -4 1208 -1 2 -517 3 -1146 3 -904 0 -1146 2 -1158 12 -13 10 -14 10 -8 1
4 -7 3 -13 -3 -13 -5 0 -12 4 -15 9 -7 11 -32 9 -43 -4 -4 -4 -3 -5 3 -2 7 4
18 0 25 -9 11 -13 10 -15 -3 -12 -9 1 -17 -1 -17 -7 0 -5 7 -9 14 -7 12 2 14
-93 15 -638 0 -418 -3 -640 -10 -640 -5 0 -12 10 -14 23 -3 12 -7 31 -9 42 -3
11 -6 -7 -7 -40 l-3 -60 -6 47 c-7 46 -20 75 -22 47 -1 -8 -6 4 -12 26 -7 26
-12 254 -14 639 -3 564 -2 598 15 591 14 -5 15 -4 5 6 -10 10 -16 10 -25 1
-16 -16 -1128 -18 -1128 -2 0 6 -9 10 -20 10 -12 0 -20 7 -20 16 0 9 -9 18
-20 21 -11 3 -20 14 -20 24 0 18 20 19 608 20 334 1 611 1 616 0 5 -1 4 4 -2
12 -9 11 -12 304 -10 1211 l3 1196 -1167 0 c-973 0 -1168 2 -1175 14 -6 11
-12 9 -28 -6 -19 -18 -19 -19 -1 -12 15 6 17 4 11 -6 -5 -9 -4 -11 3 -6 9 5
10 -236 5 -926 -3 -513 -7 -935 -9 -937 -2 -2 -5 297 -6 665 -2 550 -4 609 -8
329 -3 -187 -6 -332 -8 -322 -1 10 -9 20 -17 23 -8 4 -16 16 -17 28 0 11 -4 1
-8 -24 -4 -25 -8 72 -8 216 -1 143 -5 417 -9 609 -5 287 -4 347 7 340 9 -6 11
-4 5 5 -6 10 -4 12 8 7 8 -3 20 0 27 7 8 10 7 15 -4 19 -9 4 -13 1 -10 -6 3
-8 -9 -12 -36 -13 -25 0 -36 3 -28 8 9 5 10 8 1 8 -6 0 -15 -4 -18 -10 -4 -6
-189 -9 -528 -8 -287 0 -502 4 -477 8 l45 7 -42 1 c-24 1 -43 7 -43 12 0 6
-102 11 -282 12 l-283 3 285 5 c157 3 275 6 262 8 -13 1 -20 7 -17 12 4 6 -5
10 -21 10 -15 0 -24 3 -20 8 4 4 268 9 587 12 l579 5 0 1204 c0 663 -2 1206
-4 1208 -1 2 -517 3 -1146 3 -904 0 -1146 2 -1158 12 -13 10 -14 10 -8 1 4 -7
3 -13 -3 -13 -5 0 -12 4 -15 9 -7 11 -32 9 -43 -4 -4 -4 -3 -5 3 -2 7 4 18 0
25 -9 11 -13 10 -15 -3 -12 -9 1 -17 -1 -17 -7 0 -5 7 -9 14 -7 12 2 14 -82
15 -558 0 -366 -3 -560 -10 -560 -5 0 -12 10 -14 23 -3 12 -7 31 -9 42 -3 11
-6 -7 -7 -40 l-3 -60 -6 47 c-7 46 -20 75 -22 47 -1 -8 -6 4 -12 26 -7 25 -12
231 -14 559 -2 488 -2 518 15 511 14 -5 15 -4 5 6 -10 10 -16 10 -25 1 -16
-16 -968 -18 -968 -2 0 6 -8 10 -19 10 -10 0 -21 9 -24 20 -3 11 -12 20 -21
20 -9 0 -16 8 -16 20 0 20 7 20 528 21 290 1 531 1 536 0 5 -1 4 4 -3 12 -6 8
-11 19 -10 23 1 5 1 521 0 1147 l-1 1137 -1169 0 -1168 0 -6 -272 c-4 -150 -7
-513 -7 -807 0 -294 -2 -537 -5 -539 -3 -3 -6 296 -7 664 -2 550 -4 609 -8
329 -3 -187 -6 -330 -8 -317 -1 12 -9 25 -17 28 -8 4 -15 12 -15 20 0 8 -4 14
-10 14 -6 0 -10 101 -10 283 0 155 -3 353 -7 440 l-6 157 -19304 0 -19303 0 0
-20000z m38680 17756 c0 -2 -8 -10 -17 -17 -16 -13 -17 -12 -4 4 13 16 21 21
21 13z m18 -56 c-7 -10 -14 -17 -17 -15 -4 4 18 35 25 35 2 0 -1 -9 -8 -20z
m-77 -13 c-10 -9 -11 -8 -5 6 3 10 9 15 12 12 3 -3 0 -11 -7 -18z m72 -107 c4
0 5 6 1 13 -4 6 -3 8 1 4 5 -4 10 -14 11 -22 2 -11 -2 -12 -16 -5 -11 6 -22
16 -26 23 -5 9 -4 9 7 0 7 -7 17 -13 22 -13z m-39 -20 c-6 -6 -10 -3 -10 10 0
13 4 16 10 10 7 -7 7 -13 0 -20z m2447 -2383 c-10 -9 -11 -8 -5 6 3 10 9 15
12 12 3 -3 0 -11 -7 -18z m46 -2 c0 -8 -4 -12 -9 -9 -5 3 -6 10 -3 15 9 13 12
11 12 -6z m-8 -96 c-15 -9 -32 -2 -24 11 3 5 13 6 21 3 12 -4 13 -8 3 -14z
m698 5 c-3 -3 -12 -4 -19 -1 -8 3 -5 6 6 6 11 1 17 -2 13 -5z m-690 -29 c0 -8
-4 -12 -9 -9 -5 3 -6 10 -3 15 9 13 12 11 12 -6z m-72 -5 c-3 -5 -12 -10 -18
-10 -7 0 -6 4 3 10 19 12 23 12 15 0z m2475 -2334 c0 -2 -7 -7 -16 -10 -8 -3
-12 -2 -9 4 6 10 25 14 25 6z m-13 -42 c-3 -3 -12 -4 -19 -1 -8 3 -5 6 6 6 11
1 17 -2 13 -5z m50 -19 c0 -8 -4 -12 -9 -9 -5 3 -6 10 -3 15 9 13 12 11 12 -6z
m-14 -115 c4 0 5 6 1 13 -4 6 -3 8 1 4 5 -4 10 -14 11 -22 2 -11 -2 -12 -16
-5 -11 6 -22 16 -26 23 -5 9 -4 9 7 0 7 -7 17 -13 22 -13z m-39 -20 c-6 -6
-10 -3 -10 10 0 13 4 16 10 10 7 -7 7 -13 0 -20z m2460 -1895 c-4 -8 -8 -15
-10 -15 -2 0 -4 7 -4 15 0 8 4 15 10 15 5 0 7 -7 4 -15z m-13 -488 c-10 -9
-11 -8 -5 6 3 10 9 15 12 12 3 -3 0 -11 -7 -18z m46 -2 c0 -8 -4 -12 -9 -9 -5
3 -6 10 -3 15 9 13 12 11 12 -6z m516 -72 c-13 -2 -33 -2 -45 0 -13 2 -3 4 22
4 25 0 35 -2 23 -4z m-592 -56 c-10 -9 -11 -8 -5 6 3 10 9 15 12 12 3 -3 0
-11 -7 -18z m2481 -2334 c-7 -2 -17 -13 -23 -24 -9 -17 -7 -19 15 -15 20 4 23
1 19 -12 -4 -9 -8 -11 -10 -5 -3 7 -10 10 -17 7 -14 -6 -42 23 -32 33 3 3 6 0
6 -8 0 -8 6 -4 16 9 8 12 21 22 27 21 9 0 8 -2 -1 -6z m23 -12 c-3 -6 -11 -11
-16 -11 -5 0 -4 6 3 14 14 16 24 13 13 -3z m12 -46 c0 -8 -4 -12 -9 -9 -5 3
-6 10 -3 15 9 13 12 11 12 -6z m2407 -2190 c-4 -8 -8 -15 -10 -15 -2 0 -4 7
-4 15 0 8 4 15 10 15 5 0 7 -7 4 -15z m-51 -319 c3 -8 -2 -20 -11 -27 -14 -11
-15 -11 -5 0 6 7 9 20 6 27 -3 8 -3 14 0 14 3 0 7 -6 10 -14z m82 -5 c-3 -5
-1 -12 4 -16 6 -3 7 -13 4 -22 -5 -12 -3 -14 7 -8 9 6 11 4 5 -5 -16 -25 -37
22 -26 58 1 1 4 2 7 2 3 0 3 -4 -1 -9z m50 -21 c-3 -5 -12 -10 -18 -10 -7 0
-6 4 3 10 19 12 23 12 15 0z m-7 -47 c-17 -40 -21 -43 -38 -32 -13 9 -12 10 3
5 19 -6 24 10 5 17 -8 4 -7 6 3 6 9 1 19 8 23 16 3 8 8 15 10 15 3 0 0 -12 -6
-27z m315 -10 c-13 -2 -33 -2 -45 0 -13 2 -3 4 22 4 25 0 35 -2 23 -4z m-432
-56 c-10 -9 -11 -8 -5 6 3 10 9 15 12 12 3 -3 0 -11 -7 -18z m2446 -2109 c-3
-8 -6 -5 -6 6 -1 11 2 17 5 13 3 -3 4 -12 1 -19z m26 -236 c-10 -11 -22 -17
-26 -14 -5 2 0 10 10 18 26 20 36 17 16 -4z m32 -1 c-3 -6 -11 -11 -16 -11 -5
0 -4 6 3 14 14 16 24 13 13 -3z m-13 -40 c-3 -9 -7 -11 -9 -4 -3 7 -12 9 -21
6 -12 -3 -14 -2 -4 4 20 15 41 12 34 -6z m25 -6 c0 -8 -4 -12 -9 -9 -5 3 -6
10 -3 15 9 13 12 11 12 -6z m-19 -140 c-3 -3 -9 2 -12 12 -6 14 -5 15 5 6 7
-7 10 -15 7 -18z m2496 -2401 c5 -14 4 -15 -9 -4 -17 14 -19 20 -6 20 5 0 12
-7 15 -16z m-25 -54 c6 -19 7 -30 2 -25 -5 6 -13 24 -17 40 -9 39 0 30 15 -15z
m194 -7 c-7 -2 -19 -2 -25 0 -7 3 -2 5 12 5 14 0 19 -2 13 -5z m4 -19 c-3 -3
-12 -4 -19 -1 -8 3 -5 6 6 6 11 1 17 -2 13 -5z m2160 -2296 c-3 -8 -6 -5 -6 6
-1 11 2 17 5 13 3 -3 4 -12 1 -19z m17 -73 c-4 -8 -11 -15 -16 -15 -6 0 -5 6
2 15 7 8 14 15 16 15 2 0 1 -7 -2 -15z m41 5 c-3 -5 -1 -10 5 -10 5 0 9 -13 8
-28 -1 -16 -8 -29 -14 -29 -9 0 -10 6 -3 18 11 22 12 32 0 25 -5 -3 -11 1 -14
8 -5 12 2 20 21 25 2 1 0 -3 -3 -9z m-20 -189 c-3 -6 -11 -11 -16 -11 -5 0 -4
6 3 14 14 16 24 13 13 -3z m-24 -28 c13 -16 12 -17 -3 -4 -17 13 -22 21 -14
21 2 0 10 -8 17 -17z m2440 -2351 c-7 -2 -18 1 -23 6 -8 8 -4 9 13 5 13 -4 18
-8 10 -11z m48 -1 c7 -12 19 -17 35 -16 18 2 23 -1 19 -12 -5 -12 -7 -12 -14
-2 -13 21 -22 3 -9 -20 10 -19 7 -25 -12 -22 -10 1 -10 -13 -1 -22 3 -4 12 -2
19 4 13 10 32 -6 20 -18 -3 -4 -6 -1 -6 6 0 7 -5 9 -12 4 -19 -11 -39 -13 -32
-2 3 5 0 9 -6 9 -6 0 -8 5 -3 13 4 6 9 23 11 37 3 25 3 25 -13 5 -16 -20 -16
-19 -5 3 12 24 2 29 -20 10 -8 -7 -6 -3 3 8 14 17 15 23 5 27 -9 4 -9 6 -1 6
7 1 17 -7 22 -18z m2401 -2491 c0 -5 -8 -10 -17 -10 -15 0 -16 2 -3 10 19 12
20 12 20 0z m42 -28 c3 -11 0 -19 -8 -19 -16 0 -16 0 -8 21 8 21 11 20 16 -2z
m-51 1 c-11 -5 -11 -7 0 -14 11 -7 10 -9 -3 -9 -18 0 -23 11 -11 23 3 4 11 7
17 6 6 0 5 -3 -3 -6z m48 -125 c-5 -10 -15 -18 -22 -18 -8 0 -8 3 2 9 7 5 11
13 8 18 -3 5 0 10 8 10 10 0 11 -5 4 -19z m-44 -28 c-3 -5 -12 -10 -18 -10 -7
0 -6 4 3 10 19 12 23 12 15 0z m2483 -2382 c-1 -18 -3 -27 -6 -20 -3 10 -7 10
-18 1 -10 -8 -14 -8 -14 0 0 6 5 11 11 11 6 0 8 7 5 16 -3 8 -2 12 4 9 6 -3
10 -1 10 4 0 6 2 11 4 11 3 0 4 -15 4 -32z m-48 -32 c0 -26 -6 -18 -14 19 -5
22 -4 26 4 15 5 -8 10 -24 10 -34z m-37 19 c-3 -9 -8 -14 -10 -11 -3 3 -2 9 2
15 9 16 15 13 8 -4z m132 -5 c17 -18 17 -20 2 -14 -9 3 -17 10 -17 16 0 5 -5
6 -12 2 -7 -4 -8 -3 -4 4 9 16 10 15 31 -8z m-29 -19 c-3 -5 1 -12 10 -15 12
-5 14 -10 5 -20 -6 -7 -7 -17 -3 -21 4 -5 2 -5 -5 -1 -7 4 -17 -2 -23 -14 -6
-11 -16 -20 -23 -20 -7 0 -6 4 3 10 12 8 10 10 -10 11 l-25 2 24 4 c13 3 33
14 45 25 18 18 18 20 3 14 -10 -3 -28 1 -40 9 -18 13 -19 15 -4 15 9 0 17 -6
17 -12 0 -7 5 -5 11 5 5 9 12 17 15 17 3 0 3 -4 0 -9z m-46 -41 c0 -5 -4 -10
-10 -10 -5 0 -10 5 -10 10 0 6 5 10 10 10 6 0 10 -4 10 -10z m87 -5 c0 -8 -4
-12 -9 -9 -5 3 -6 10 -3 15 9 13 12 11 12 -6z m-133 -1 c18 -7 22 -34 5 -34
-5 0 -7 -5 -3 -12 5 -7 3 -8 -5 -3 -9 5 -10 10 -2 18 7 7 5 14 -7 23 -18 14
-13 18 12 8z m29 -54 c-3 -12 -8 -19 -11 -16 -5 6 5 36 12 36 2 0 2 -9 -1 -20z
m24 -42 c-3 -8 -6 -5 -6 6 -1 11 2 17 5 13 3 -3 4 -12 1 -19z m2422 -2279 c4
6 12 7 21 0 13 -8 12 -12 -5 -24 -21 -17 -42 -14 -37 5 2 7 -3 10 -12 7 -8 -3
-17 1 -20 8 -4 11 0 12 21 4 17 -6 28 -6 32 0z m-26 -47 c14 -15 15 -19 2 -19
-8 0 -12 4 -9 8 2 4 -4 12 -13 18 -10 6 -13 11 -7 11 6 0 18 -8 27 -18z m-13
-133 c-6 -11 -8 -24 -5 -29 3 -5 2 -11 -3 -14 -5 -3 -8 8 -8 25 0 16 4 29 8
29 5 0 6 5 2 12 -4 7 -3 8 4 4 9 -5 9 -13 2 -27z m77 4 c-8 -18 -13 -20 -24
-12 -7 6 -13 17 -12 23 0 7 2 6 6 -1 2 -7 9 -13 14 -13 4 0 6 6 3 13 -3 8 2
14 10 14 11 0 12 -5 3 -24z m-28 -50 c2 -1 -5 -1 -16 0 -11 0 -20 7 -20 14 0
10 4 10 16 1 9 -7 18 -13 20 -15z m31 7 c0 -5 -5 -10 -11 -10 -5 0 -7 5 -4 10
3 6 8 10 11 10 2 0 4 -4 4 -10z"/>
<path d="M41148 38854 c-2 -636 -1 -1158 1 -1160 2 -2 530 -4 1173 -4 l1168 0
0 1160 0 1160 -1170 0 -1170 0 -2 -1156z"/>
<path d="M43588 38854 c-2 -636 -1 -1158 1 -1160 2 -2 530 -4 1173 -4 l1168 0
0 1160 0 1160 -1170 0 -1170 0 -2 -1156z"/>
<path d="M46030 38850 l0 -1160 1170 0 1170 0 0 1160 0 1160 -1170 0 -1170 0
0 -1160z"/>
<path d="M48470 38850 l0 -1160 1170 0 1170 0 0 1160 0 1160 -1170 0 -1170 0
0 -1160z"/>
<path d="M50910 38850 l0 -1160 1170 0 1170 0 0 1160 0 1160 -1170 0 -1170 0
0 -1160z"/>
<path d="M53350 38850 l0 -1160 1170 0 1170 0 0 1160 0 1160 -1170 0 -1170 0
0 -1160z"/>
<path d="M55790 38850 l0 -1160 1168 2 1167 3 3 1158 2 1157 -1170 0 -1170 0
0 -1160z"/>
<path d="M58230 38850 l0 -1160 1168 2 1167 3 3 1158 2 1157 -1170 0 -1170 0
0 -1160z"/>
<path d="M60670 38850 l0 -1160 1168 2 1167 3 3 1158 2 1157 -1170 0 -1170 0
0 -1160z"/>
<path d="M63102 38853 l3 -1158 1170 0 1170 0 3 1158 2 1157 -1175 0 -1175 0
2 -1157z"/>
<path d="M65542 38853 l3 -1158 1168 -3 1167 -2 0 1160 0 1160 -1170 0 -1170
0 2 -1157z"/>
<path d="M67982 38853 l3 -1158 1008 -3 1007 -2 0 1160 0 1160 -1010 0 -1010
0 2 -1157z"/>
<path d="M41101 37724 c0 -11 3 -14 6 -6 3 7 2 16 -1 19 -3 4 -6 -2 -5 -13z"/>
<path d="M41060 37726 c0 -2 7 -9 15 -16 13 -11 14 -10 9 4 -5 14 -24 23 -24
12z"/>
<path d="M43587 36383 l3 -1208 1170 0 c643 0 1170 3 1170 8 0 4 0 547 0 1207
l0 1200 -1172 0 -1173 0 2 -1207z"/>
<path d="M46030 36380 l0 -1210 1170 0 1170 0 0 1210 0 1210 -1170 0 -1170 0
0 -1210z"/>
<path d="M48470 36380 l0 -1210 1170 0 1170 0 0 1210 0 1210 -1170 0 -1170 0
0 -1210z"/>
<path d="M50910 36380 l0 -1210 1168 2 1167 3 3 1208 2 1207 -1170 0 -1170 0
0 -1210z"/>
<path d="M53350 36380 l0 -1210 1168 2 1167 3 3 1208 2 1207 -1170 0 -1170 0
0 -1210z"/>
<path d="M55790 36380 l0 -1210 1168 2 1167 3 3 1208 2 1207 -1170 0 -1170 0
0 -1210z"/>
<path d="M58230 36380 l0 -1210 1168 2 1167 3 3 1208 2 1207 -1170 0 -1170 0
0 -1210z"/>
<path d="M60670 36380 l0 -1210 1168 2 1167 3 3 1208 2 1207 -1170 0 -1170 0
0 -1210z"/>
<path d="M63102 36383 l3 -1208 1170 0 1170 0 3 1208 2 1207 -1175 0 -1175 0
2 -1207z"/>
<path d="M65542 36383 l3 -1208 1168 -3 1167 -2 0 1210 0 1210 -1170 0 -1170
0 2 -1207z"/>
<path d="M67982 36383 l3 -1208 1008 -3 1007 -2 0 1210 0 1210 -1010 0 -1010
0 2 -1207z"/>
<path d="M41104 36850 c0 -157 2 -221 3 -142 2 78 2 206 0 285 -1 78 -3 14 -3
-143z"/>
<path d="M43527 35159 c7 -7 15 -10 18 -7 3 3 -2 9 -12 12 -14 6 -15 5 -6 -5z"/>
<path d="M42968 35113 c6 -2 18 -2 25 0 6 3 1 5 -13 5 -14 0 -19 -2 -12 -5z"/>
<path d="M46027 33862 l3 -1207 1170 0 c643 0 1170 3 1170 8 0 4 0 547 0 1207
l0 1200 -1172 0 -1173 0 2 -1208z"/>
<path d="M48470 33860 l0 -1210 1170 0 1170 0 0 1210 0 1210 -1170 0 -1170 0
0 -1210z"/>
<path d="M50910 33860 l0 -1210 1168 2 1167 3 3 1208 2 1207 -1170 0 -1170 0
0 -1210z"/>
<path d="M53350 33860 l0 -1210 1168 2 1167 3 3 1208 2 1207 -1170 0 -1170 0
0 -1210z"/>
<path d="M55790 33860 l0 -1210 1168 2 1167 3 3 1208 2 1207 -1170 0 -1170 0
0 -1210z"/>
<path d="M58230 33860 l0 -1210 1168 2 1167 3 3 1208 2 1207 -1170 0 -1170 0
0 -1210z"/>
<path d="M60670 33860 l0 -1210 1168 2 1167 3 3 1208 2 1207 -1170 0 -1170 0
0 -1210z"/>
<path d="M63102 33863 l3 -1208 1170 0 1170 0 3 1208 2 1207 -1175 0 -1175 0
2 -1207z"/>
<path d="M65542 33863 l3 -1208 1168 -3 1167 -2 0 1210 0 1210 -1170 0 -1170
0 2 -1207z"/>
<path d="M67982 33863 l3 -1208 1008 -3 1007 -2 0 1210 0 1210 -1010 0 -1010
0 2 -1207z"/>
<path d="M45980 32726 c0 -2 8 -10 18 -17 15 -13 16 -12 3 4 -13 16 -21 21
-21 13z"/>
<path d="M48470 31364 c0 -1118 -1 -1188 -17 -1200 -17 -13 -17 -14 2 -7 18 6
18 5 6 -10 -8 -10 -11 -20 -7 -24 3 -3 6 -2 6 3 0 5 469 9 1172 9 645 0 1174
3 1176 8 1 4 2 547 2 1207 l0 1200 -1170 0 -1170 0 0 -1186z"/>
<path d="M50910 31340 l0 -1210 1170 0 1170 0 0 1210 0 1210 -1170 0 -1170 0
0 -1210z"/>
<path d="M53350 31340 l0 -1210 1170 0 1170 0 0 1210 0 1210 -1170 0 -1170 0
0 -1210z"/>
<path d="M55790 31340 l0 -1210 1168 2 1167 3 3 1208 2 1207 -1170 0 -1170 0
0 -1210z"/>
<path d="M58230 31340 l0 -1210 1168 2 1167 3 3 1208 2 1207 -1170 0 -1170 0
0 -1210z"/>
<path d="M60670 31340 l0 -1210 1168 2 1167 3 3 1208 2 1207 -1170 0 -1170 0
0 -1210z"/>
<path d="M63102 31343 l3 -1208 1170 0 1170 0 3 1208 2 1207 -1175 0 -1175 0
2 -1207z"/>
<path d="M65542 31343 l3 -1208 1168 -3 1167 -2 0 1210 0 1210 -1170 0 -1170
0 2 -1207z"/>
<path d="M67982 31343 l3 -1208 1008 -3 1007 -2 0 1210 0 1210 -1010 0 -1010
0 2 -1207z"/>
<path d="M45984 31650 c0 -157 2 -221 3 -142 2 78 2 206 0 285 -1 78 -3 14 -3
-143z"/>
<path d="M48410 30130 c-9 -6 -10 -10 -3 -10 6 0 15 5 18 10 8 12 4 12 -15 0z"/>
<path d="M48455 30090 c-3 -5 -1 -10 4 -10 6 0 11 5 11 10 0 6 -2 10 -4 10 -3
0 -8 -4 -11 -10z"/>
<path d="M47698 30063 c12 -2 32 -2 45 0 12 2 2 4 -23 4 -25 0 -35 -2 -22 -4z"/>
<path d="M48406 30033 c-6 -14 -5 -15 5 -6 7 7 10 15 7 18 -3 3 -9 -2 -12 -12z"/>
<path d="M50910 30033 c0 -5 0 -542 0 -1195 0 -936 -3 -1187 -13 -1191 -9 -4
-9 -6 1 -6 7 -1 10 -5 7 -11 -4 -7 388 -10 1169 -10 l1176 0 -2 1208 -3 1207
-1167 3 c-643 1 -1168 -1 -1168 -5z"/>
<path d="M53348 28830 l-3 -1210 1173 0 1172 0 -2 1208 -3 1207 -1167 3 -1168
2 -2 -1210z"/>
<path d="M55790 28830 l0 -1210 1170 0 1170 0 -2 1208 -3 1207 -1167 3 -1168
2 0 -1210z"/>
<path d="M58230 28830 l0 -1210 1170 0 1170 0 -2 1208 -3 1207 -1167 3 -1168
2 0 -1210z"/>
<path d="M60670 28830 l0 -1210 1170 0 1170 0 -2 1208 -3 1207 -1167 3 -1168
2 0 -1210z"/>
<path d="M63107 30033 c-4 -3 -7 -548 -7 -1210 l0 -1203 1175 0 1175 0 -2
1208 -3 1207 -1166 3 c-641 1 -1169 -1 -1172 -5z"/>
<path d="M65547 30033 c-4 -3 -7 -548 -7 -1210 l0 -1203 1170 0 1170 0 0 1210
0 1210 -1163 0 c-640 0 -1167 -3 -1170 -7z"/>
<path d="M67987 30033 c-4 -3 -7 -548 -7 -1210 l0 -1203 1010 0 1010 0 0 1210
0 1210 -1003 0 c-552 0 -1007 -3 -1010 -7z"/>
<path d="M50830 27666 c0 -2 8 -10 18 -17 15 -13 16 -12 3 4 -13 16 -21 21
-21 13z"/>
<path d="M50835 27509 c-4 -6 -5 -12 -2 -15 2 -3 7 2 10 11 7 17 1 20 -8 4z"/>
<path d="M53348 26313 c-2 -960 -6 -1207 -16 -1205 -6 1 -11 -3 -10 -9 2 -6
-3 -14 -11 -17 -10 -3 -13 1 -8 17 3 11 0 24 -5 28 -7 3 -8 1 -4 -5 4 -7 2
-12 -4 -12 -7 0 -8 -6 -1 -19 6 -10 8 -21 5 -23 -3 -3 3 -9 13 -12 9 -4 14 -4
10 0 -4 4 0 16 10 26 15 17 65 18 1190 18 l1173 0 0 1210 0 1210 -1170 0
-1170 0 -2 -1207z"/>
<path d="M55788 26310 l-3 -1210 1173 0 1172 0 -2 1208 -3 1207 -1167 3 -1168
2 -2 -1210z"/>
<path d="M58230 26310 l0 -1210 1170 0 1170 0 -2 1208 -3 1207 -1167 3 -1168
2 0 -1210z"/>
<path d="M60670 26310 l0 -1210 1170 0 1170 0 -2 1208 -3 1207 -1167 3 -1168
2 0 -1210z"/>
<path d="M63107 27513 c-4 -3 -7 -548 -7 -1210 l0 -1203 1175 0 1175 0 -2
1208 -3 1207 -1166 3 c-641 1 -1169 -1 -1172 -5z"/>
<path d="M65547 27513 c-4 -3 -7 -548 -7 -1210 l0 -1203 1170 0 1170 0 0 1210
0 1210 -1163 0 c-640 0 -1167 -3 -1170 -7z"/>
<path d="M67987 27513 c-4 -3 -7 -548 -7 -1210 l0 -1203 1010 0 1010 0 0 1210
0 1210 -1003 0 c-552 0 -1007 -3 -1010 -7z"/>
<path d="M50864 26450 c0 -157 2 -221 3 -142 2 78 2 206 0 285 -1 78 -3 14 -3
-143z"/>
<path d="M53339 25078 c-6 -21 -5 -38 1 -38 5 0 8 9 7 20 -1 17 -5 26 -8 18z"/>
<path d="M53260 25036 c0 -2 7 -7 16 -10 8 -3 12 -2 9 4 -6 10 -25 14 -25 6z"/>
<path d="M52418 25023 c12 -2 32 -2 45 0 12 2 2 4 -23 4 -25 0 -35 -2 -22 -4z"/>
<path d="M53290 25001 c0 -7 -5 -9 -12 -5 -7 5 -8 3 -3 -5 5 -9 10 -10 18 -2
6 6 8 14 4 18 -4 3 -7 1 -7 -6z"/>
<path d="M55789 23823 c-1 -648 0 -1184 1 -1192 1 -8 -4 -18 -12 -22 -11 -7
-11 -9 0 -9 7 0 10 -4 7 -10 -4 -7 388 -10 1169 -10 l1176 0 -2 1208 -3 1207
-1167 3 -1168 2 -1 -1177z"/>
<path d="M58228 23790 l-3 -1210 1173 0 1172 0 -2 1208 -3 1207 -1167 3 -1168
2 -2 -1210z"/>
<path d="M60670 23790 l0 -1210 1170 0 1170 0 -2 1208 -3 1207 -1167 3 -1168
2 0 -1210z"/>
<path d="M63107 24993 c-4 -3 -7 -548 -7 -1210 l0 -1203 1175 0 1175 0 -2
1208 -3 1207 -1166 3 c-641 1 -1169 -1 -1172 -5z"/>
<path d="M65547 24993 c-4 -3 -7 -548 -7 -1210 l0 -1203 1170 0 1170 0 0 1210
0 1210 -1163 0 c-640 0 -1167 -3 -1170 -7z"/>
<path d="M67987 24993 c-4 -3 -7 -548 -7 -1210 l0 -1203 1010 0 1010 0 0 1210
0 1210 -1003 0 c-552 0 -1007 -3 -1010 -7z"/>
<path d="M55725 22620 c3 -5 8 -10 11 -10 2 0 4 5 4 10 0 6 -5 10 -11 10 -5 0
-7 -4 -4 -10z"/>
<path d="M58230 21277 c0 -853 -3 -1206 -11 -1214 -8 -8 -7 -13 2 -18 8 -5 10
-4 5 3 -5 9 282 12 1168 12 l1176 0 0 1210 0 1210 -1170 0 -1170 0 0 -1203z"/>
<path d="M60668 21270 l-3 -1210 1173 0 1172 0 0 1210 0 1210 -1170 0 -1170 0
-2 -1210z"/>
<path d="M63100 21270 l0 -1210 1175 0 1175 0 0 1210 0 1210 -1175 0 -1175 0
0 -1210z"/>
<path d="M65540 21270 l0 -1210 1170 0 1170 0 0 1210 0 1210 -1170 0 -1170 0
0 -1210z"/>
<path d="M67980 21270 l0 -1210 1010 0 1010 0 0 1210 0 1210 -1010 0 -1010 0
0 -1210z"/>
<path d="M55714 21265 c0 -165 2 -234 3 -153 2 81 2 216 0 300 -1 84 -3 18 -3
-147z"/>
<path d="M58190 20076 c7 -7 13 -7 20 0 6 6 3 10 -10 10 -13 0 -16 -4 -10 -10z"/>
<path d="M56698 20043 c78 -2 206 -2 285 0 78 1 14 3 -143 3 -157 0 -221 -2
-142 -3z"/>
<path d="M58211 20004 c0 -11 3 -14 6 -6 3 7 2 16 -1 19 -3 4 -6 -2 -5 -13z"/>
<path d="M58219 19973 c-13 -16 -12 -17 4 -4 16 13 21 21 13 21 -2 0 -10 -8
-17 -17z"/>
<path d="M56778 19973 c78 -2 206 -2 285 0 78 1 14 3 -143 3 -157 0 -221 -2
-142 -3z"/>
<path d="M60670 18772 c0 -937 -3 -1191 -12 -1201 -10 -11 -10 -13 0 -7 14 8
16 -6 2 -20 -6 -6 3 -8 23 -7 18 1 548 2 1180 2 l1147 1 0 1210 0 1210 -1170
0 -1170 0 0 -1188z"/>
<path d="M63100 18750 l0 -1210 1175 0 1175 0 0 1210 0 1210 -1175 0 -1175 0
0 -1210z"/>
<path d="M65540 18750 l0 -1210 1170 0 1170 0 0 1210 0 1210 -1170 0 -1170 0
0 -1210z"/>
<path d="M67980 18750 l0 -1210 1010 0 1010 0 0 1210 0 1210 -1010 0 -1010 0
0 -1210z"/>
<path d="M63098 16226 c-3 -1074 -1 -1213 12 -1211 8 2 538 4 1178 4 l1162 1
0 1210 0 1210 -1175 0 -1175 0 -2 -1214z"/>
<path d="M65540 16230 l0 -1210 1170 0 1170 0 0 1210 0 1210 -1170 0 -1170 0
0 -1210z"/>
<path d="M67980 16230 l0 -1210 1010 0 1010 0 0 1210 0 1210 -1010 0 -1010 0
0 -1210z"/>
<path d="M61418 15003 c78 -2 206 -2 285 0 78 1 14 3 -143 3 -157 0 -221 -2
-142 -3z"/>
<path d="M61478 14933 c67 -2 177 -2 245 0 67 1 12 3 -123 3 -135 0 -190 -2
-122 -3z"/>
<path d="M63046 14903 c-6 -14 -5 -15 5 -6 7 7 10 15 7 18 -3 3 -9 -2 -12 -12z"/>
<path d="M65539 13733 c0 -654 -2 -1200 -3 -1214 -1 -19 3 -26 14 -24 8 2 536
4 1173 4 l1157 1 0 1210 0 1210 -1170 0 -1170 0 -1 -1187z"/>
<path d="M67980 13710 l0 -1210 1010 0 1010 0 0 1210 0 1210 -1010 0 -1010 0
0 -1210z"/>
<path d="M67978 11186 c-3 -1074 -1 -1213 12 -1211 8 2 464 4 1013 4 l997 1 0
1210 0 1210 -1010 0 -1010 0 -2 -1214z"/>
<path d="M67853 9925 c0 -8 3 -13 5 -10 3 3 11 0 17 -5 9 -7 16 -5 26 7 11 15
11 16 -1 6 -11 -10 -17 -10 -30 2 -15 13 -17 13 -17 0z"/>
</g>
</svg>
